<?xml version="1.0" encoding="utf-8"?>
<!-- Generator: Adobe Illustrator 19.1.0, SVG Export Plug-In . SVG Version: 6.00 Build 0)  -->
<svg version="1.1" id="Layer_1" xmlns="http://www.w3.org/2000/svg" xmlns:xlink="http://www.w3.org/1999/xlink" x="0px" y="0px"
	 viewBox="-266 414.2 48.6 12.7" style="enable-background:new -266 414.2 48.6 12.7;" xml:space="preserve">
<style type="text/css">
	.st0{fill:#FFFEFE;}
</style>
<path class="st0" d="M-222.7,415.6c0.5,0,0.9,0.1,1.2,0.4s0.4,0.6,0.4,1.1v2.2h-0.9V417c0-0.1,0-0.2,0-0.3c0-0.1-0.1-0.2-0.2-0.2
	s-0.3-0.1-0.6-0.1c-0.1,0-0.2,0-0.4,0l-0.3,0v2.8h-0.9V416l0.2-0.1c0.1-0.1,0.3-0.1,0.6-0.2C-223.3,415.6-223,415.6-222.7,415.6
	L-222.7,415.6z M-226.5,418.6c0.2,0,0.3,0,0.4-0.1c0.1-0.1,0.2-0.2,0.3-0.3c0.1-0.2,0.1-0.4,0.1-0.7c0-0.3,0-0.6-0.1-0.7
	c-0.1-0.2-0.2-0.3-0.3-0.3c-0.1-0.1-0.3-0.1-0.4-0.1c-0.2,0-0.3,0-0.4,0.1c-0.1,0.1-0.2,0.2-0.3,0.3c-0.1,0.2-0.1,0.4-0.1,0.7
	c0,0.3,0,0.6,0.1,0.7c0.1,0.2,0.2,0.3,0.3,0.3C-226.8,418.6-226.7,418.6-226.5,418.6L-226.5,418.6z M-226.5,415.6
	c0.5,0,1,0.2,1.3,0.5s0.4,0.8,0.4,1.4c0,0.6-0.1,1.1-0.4,1.4c-0.3,0.3-0.7,0.5-1.3,0.5c-0.5,0-1-0.2-1.3-0.5
	c-0.3-0.3-0.4-0.8-0.4-1.4c0-0.6,0.1-1.1,0.4-1.4C-227.5,415.8-227.1,415.6-226.5,415.6L-226.5,415.6z M-228.6,416.4h-0.8v1.8
	c0,0.2,0,0.3,0.1,0.3s0.2,0.1,0.3,0.1c0.1,0,0.2,0,0.2,0c0.1,0,0.1,0,0.2-0.1v0.7c-0.1,0-0.2,0.1-0.3,0.1c-0.1,0-0.2,0-0.3,0
	c-0.4,0-0.6-0.1-0.8-0.3c-0.2-0.2-0.3-0.5-0.3-0.9v-1.7h-0.6v-0.7h0.6v-1.1h0.9v1.1h0.8L-228.6,416.4L-228.6,416.4z M-231.1,414.9
	c-0.2,0-0.4,0-0.5,0.1c-0.1,0.1-0.2,0.3-0.2,0.6h0.8v0.7h-0.8v2.8h-0.9v-2.8h-0.6v-0.7h0.6c0-0.4,0.1-0.7,0.2-0.9
	c0.1-0.2,0.3-0.4,0.5-0.5c0.2-0.1,0.4-0.1,0.6-0.1l0.2,0l0.2,0v0.7L-231.1,414.9L-231.1,414.9z M-233.8,419.2h-0.9v-4.9h0.9V419.2
	L-233.8,419.2z M-236.2,418v-0.5l-0.2,0l-0.3,0c-0.3,0-0.5,0-0.6,0.1c-0.1,0.1-0.2,0.2-0.2,0.3c0,0.2,0.1,0.3,0.2,0.4
	s0.3,0.1,0.5,0.1c0.2,0,0.4-0.1,0.5-0.1C-236.2,418.3-236.2,418.2-236.2,418L-236.2,418z M-236.9,415.6c0.5,0,0.9,0.1,1.2,0.4
	c0.3,0.3,0.4,0.6,0.4,1.1v1c0,0.2,0,0.4-0.1,0.6c-0.1,0.2-0.3,0.3-0.5,0.5c-0.2,0.1-0.5,0.2-0.9,0.2c-0.4,0-0.7-0.1-0.9-0.2
	s-0.4-0.3-0.5-0.5c-0.1-0.2-0.1-0.4-0.1-0.6c0-0.1,0-0.2,0.1-0.4c0.1-0.2,0.2-0.3,0.4-0.5c0.2-0.1,0.6-0.2,1-0.2l0.3,0l0.3,0
	c0-0.2-0.1-0.4-0.2-0.5c-0.1-0.1-0.3-0.2-0.6-0.2c-0.2,0-0.4,0-0.6,0c-0.2,0-0.3,0.1-0.5,0.1v-0.7c0.2-0.1,0.3-0.1,0.5-0.1
	C-237.3,415.6-237.1,415.6-236.9,415.6L-236.9,415.6z M-240.4,415.6c0.5,0,0.9,0.1,1.2,0.4c0.3,0.3,0.4,0.6,0.4,1.1v2.2h-0.9V417
	c0-0.1,0-0.2,0-0.3c0-0.1-0.1-0.2-0.2-0.2c-0.1-0.1-0.3-0.1-0.6-0.1c-0.1,0-0.2,0-0.3,0c-0.1,0-0.2,0-0.3,0.1v2.8h-0.9v-4.9h0.9v1.4
	c0.1,0,0.2-0.1,0.3-0.1C-240.6,415.6-240.5,415.6-240.4,415.6L-240.4,415.6z M-222.2,422.9c0,0.1,0.1,0.2,0.3,0.3l0.6,0.2
	c0.2,0.1,0.4,0.2,0.6,0.4c0.2,0.2,0.3,0.4,0.3,0.8c0,0.3-0.1,0.6-0.4,0.7c-0.2,0.2-0.6,0.3-1,0.3c-0.2,0-0.4,0-0.6-0.1
	s-0.4-0.1-0.5-0.2v-0.8c0.1,0.1,0.3,0.2,0.4,0.2c0.2,0.1,0.4,0.1,0.6,0.1c0.3,0,0.4,0,0.5-0.1c0.1-0.1,0.1-0.1,0.1-0.2
	c0-0.1-0.1-0.2-0.3-0.3c-0.2-0.1-0.4-0.1-0.6-0.2c-0.2-0.1-0.4-0.2-0.6-0.3c-0.2-0.1-0.3-0.4-0.3-0.7c0-0.4,0.1-0.7,0.4-0.8
	c0.3-0.2,0.6-0.3,0.9-0.3c0.2,0,0.4,0,0.5,0.1c0.2,0,0.3,0.1,0.5,0.2v0.7c-0.1-0.1-0.2-0.1-0.4-0.1c-0.1,0-0.3,0-0.5,0
	c-0.2,0-0.3,0-0.4,0.1C-222.1,422.7-222.2,422.8-222.2,422.9L-222.2,422.9z M-225.2,421.9c0.5,0,0.9,0.1,1.2,0.4
	c0.3,0.3,0.4,0.6,0.4,1.1v2.2h-0.9v-2.2c0-0.1,0-0.2,0-0.3c0-0.1-0.1-0.2-0.2-0.2c-0.1-0.1-0.3-0.1-0.6-0.1c-0.1,0-0.2,0-0.4,0
	l-0.3,0v2.8h-0.9v-3.2l0.2-0.1c0.1-0.1,0.3-0.1,0.6-0.2C-225.8,421.9-225.5,421.9-225.2,421.9L-225.2,421.9z M-228.3,424.7V423
	c0-0.2-0.1-0.3-0.2-0.3c-0.1-0.1-0.3-0.1-0.4-0.1c-0.2,0-0.4,0.1-0.5,0.2c-0.1,0.2-0.2,0.4-0.2,0.8c0,0.4,0.1,0.7,0.2,0.8
	c0.1,0.1,0.3,0.2,0.6,0.2l0.3,0L-228.3,424.7L-228.3,424.7z M-228.9,421.9c0.4,0,0.6,0.1,0.9,0.2c0.2,0.1,0.4,0.3,0.5,0.4
	c0.1,0.2,0.1,0.4,0.1,0.6v2.5c0,0.2,0,0.4-0.1,0.6c-0.1,0.2-0.2,0.4-0.5,0.5c-0.2,0.1-0.6,0.2-1,0.2c-0.2,0-0.4,0-0.6,0
	c-0.2,0-0.3-0.1-0.5-0.1V426c0.1,0,0.2,0.1,0.4,0.1c0.2,0,0.3,0,0.5,0c0.3,0,0.5,0,0.6-0.1c0.1-0.1,0.2-0.1,0.2-0.2
	c0-0.1,0-0.2,0-0.2v-0.2l-0.3,0c-0.1,0-0.2,0-0.3,0c-0.5,0-0.9-0.2-1.2-0.5c-0.3-0.3-0.4-0.7-0.4-1.3c0-0.5,0.1-0.9,0.3-1.2
	s0.4-0.4,0.6-0.5C-229.3,421.9-229.1,421.8-228.9,421.9L-228.9,421.9z M-231.1,421.4h-0.9v-0.8h0.9V421.4L-231.1,421.4z
	 M-231.1,425.5h-0.9v-3.6h0.9V425.5L-231.1,425.5z M-234.2,422.9c0,0.1,0.1,0.2,0.3,0.3l0.6,0.2c0.2,0.1,0.4,0.2,0.6,0.4
	c0.2,0.2,0.3,0.4,0.3,0.8c0,0.3-0.1,0.6-0.4,0.7c-0.2,0.2-0.6,0.3-1,0.3c-0.2,0-0.4,0-0.6-0.1s-0.4-0.1-0.5-0.2v-0.8
	c0.1,0.1,0.3,0.2,0.4,0.2c0.2,0.1,0.4,0.1,0.6,0.1c0.3,0,0.4,0,0.5-0.1c0.1-0.1,0.1-0.1,0.1-0.2c0-0.1-0.1-0.2-0.3-0.3
	c-0.2-0.1-0.4-0.1-0.6-0.2c-0.2-0.1-0.4-0.2-0.6-0.3c-0.2-0.1-0.3-0.4-0.3-0.7c0-0.4,0.1-0.7,0.4-0.8c0.3-0.2,0.6-0.3,0.9-0.3
	c0.2,0,0.4,0,0.5,0.1c0.2,0,0.3,0.1,0.4,0.2v0.7c-0.1-0.1-0.2-0.1-0.4-0.1c-0.1,0-0.3,0-0.5,0c-0.2,0-0.3,0-0.4,0.1
	C-234.1,422.7-234.2,422.8-234.2,422.9L-234.2,422.9z M-237,422.5c-0.2,0-0.4,0.1-0.5,0.2c-0.1,0.1-0.2,0.4-0.2,0.7h1.4
	c0-0.2-0.1-0.4-0.2-0.6C-236.6,422.6-236.7,422.6-237,422.5L-237,422.5z M-236.8,424.8c0.3,0,0.5,0,0.7-0.1c0.2-0.1,0.4-0.1,0.5-0.2
	v0.7c-0.2,0.1-0.4,0.2-0.6,0.2c-0.2,0.1-0.5,0.1-0.8,0.1c-0.2,0-0.5,0-0.7-0.1c-0.3-0.1-0.5-0.3-0.6-0.5c-0.2-0.3-0.3-0.6-0.3-1.1
	c0-0.4,0.1-0.7,0.2-1s0.3-0.5,0.5-0.7c0.2-0.2,0.5-0.2,0.9-0.3c0.4,0,0.7,0.1,0.9,0.3c0.2,0.2,0.4,0.4,0.5,0.6
	c0.1,0.3,0.2,0.5,0.2,0.9l0,0.2l0,0.2h-2.3c0,0.3,0.1,0.6,0.3,0.6C-237.2,424.8-237,424.8-236.8,424.8L-236.8,424.8z M-241.3,423.6
	c0,0.4,0.1,0.7,0.2,0.9c0.1,0.2,0.3,0.3,0.6,0.3c0.2,0,0.4,0,0.5-0.1s0.2-0.2,0.2-0.3v-1.8c-0.1,0-0.2,0-0.3,0c-0.1,0-0.2,0-0.3,0
	c-0.3,0-0.5,0.1-0.6,0.2C-241.2,422.9-241.3,423.2-241.3,423.6L-241.3,423.6z M-242.2,423.7c0-0.6,0.1-1,0.4-1.3
	c0.3-0.3,0.7-0.5,1.2-0.5c0.2,0,0.4,0,0.6,0.1v-1.4h0.9v3.8c0,0.2,0,0.4-0.1,0.6c-0.1,0.2-0.3,0.3-0.5,0.5c-0.2,0.1-0.5,0.2-0.9,0.2
	c-0.2,0-0.4,0-0.6-0.1s-0.5-0.3-0.7-0.5C-242.1,424.6-242.2,424.2-242.2,423.7L-242.2,423.7z M-218.8,418.6c0.3,0,0.5,0,0.7-0.1
	c0.2-0.1,0.4-0.1,0.5-0.2v0.7c-0.2,0.1-0.4,0.2-0.6,0.2c-0.2,0.1-0.5,0.1-0.8,0.1c-0.2,0-0.5,0-0.7-0.1c-0.3-0.1-0.5-0.3-0.6-0.5
	c-0.2-0.3-0.3-0.6-0.3-1.1c0-0.4,0-0.7,0.2-1s0.3-0.5,0.5-0.7c0.2-0.2,0.5-0.3,0.9-0.3c0.4,0,0.7,0.1,0.9,0.3
	c0.2,0.2,0.4,0.4,0.5,0.6c0.1,0.3,0.2,0.5,0.2,0.9l0,0.2l0,0.2h-2.3c0,0.3,0.1,0.6,0.3,0.6C-219.2,418.5-219,418.6-218.8,418.6
	L-218.8,418.6z M-219,416.3c-0.2,0-0.4,0.1-0.5,0.2s-0.2,0.4-0.2,0.7h1.4c0-0.2-0.1-0.4-0.2-0.6S-218.8,416.3-219,416.3L-219,416.3z
	 M-259.2,419.1v1.9h-4.8v4.7h-2v-11.3h2v4.7H-259.2L-259.2,419.1z M-258,414.4h5.6v1.8h-3.6v9.5h-2V414.4L-258,414.4z M-250.4,423.9
	c1.2,0,2-0.3,2.5-0.9c0.5-0.6,0.8-1.6,0.8-2.9c0-1.3-0.2-2.3-0.8-2.9c-0.5-0.6-1.4-0.9-2.5-0.9h-0.6v-1.8h0.6c1.7,0,3.1,0.5,4,1.4
	c0.9,1,1.4,2.4,1.4,4.2c0,1.9-0.5,3.3-1.4,4.2c-0.9,1-2.2,1.4-4,1.4h-4.3v-1.8H-250.4L-250.4,423.9z"/>
</svg>
